<svg width="32" height="32" viewBox="0 0 32 32" fill="none" xmlns="http://www.w3.org/2000/svg">
<g clip-path="url(#clip0_66_6016)">
<mask id="mask0_66_6016" style="mask-type:luminance" maskUnits="userSpaceOnUse" x="0" y="0" width="32" height="32">
<path d="M0 0H32V32H0V0Z" fill="white"/>
</mask>
<g mask="url(#mask0_66_6016)">
<path fill-rule="evenodd" clip-rule="evenodd" d="M25.2656 7.48845C25.2655 7.48845 25.2657 7.48839 25.2656 7.48845L22.9764 8.44025C22.9658 8.44409 22.9572 8.45196 22.9523 8.46214C22.9505 8.46597 22.9495 8.4701 22.9492 8.47432C22.9491 8.47985 22.9501 8.48534 22.9521 8.49049L22.9541 8.49593L25.9861 17.2432L25.9885 17.2501C25.99 17.2545 25.9917 17.2573 25.9942 17.2599C25.9983 17.2641 26.0033 17.2675 26.0087 17.2699C26.0232 17.2764 26.0356 17.2754 26.0443 17.2718C26.0442 17.2719 26.0443 17.2718 26.0443 17.2718L28.3337 16.3199C28.3443 16.3161 28.353 16.3082 28.3578 16.298C28.3596 16.2942 28.3606 16.2901 28.3609 16.2858C28.361 16.2803 28.36 16.2748 28.358 16.2697L28.3561 16.2642L25.324 7.51696L25.3216 7.51001C25.3205 7.50638 25.3186 7.50305 25.316 7.5003C25.3118 7.49604 25.3069 7.49263 25.3014 7.49028C25.2869 7.48381 25.2743 7.48489 25.2656 7.48845ZM26.4925 7.11519C26.2547 6.40938 25.4645 6.0689 24.7932 6.3467L22.5078 7.29689C21.8858 7.55178 21.5559 8.24977 21.7873 8.90293L24.8176 17.645C25.0555 18.3508 25.8456 18.6913 26.5169 18.4135L26.5179 18.4131L28.8023 17.4632C29.4244 17.2084 29.7542 16.5104 29.5228 15.8572L26.4925 7.11519ZM5.87648 7.78042L5.87632 7.7809L3.24201 16.6942C3.24064 16.6988 3.2392 16.7035 3.2377 16.7081C3.23334 16.7218 3.23792 16.7452 3.26643 16.7554L5.58882 17.5857L5.59992 17.5898C5.60046 17.59 5.601 17.5902 5.60283 17.5901C5.60803 17.5895 5.61306 17.5879 5.61765 17.5854C5.62357 17.5826 5.62887 17.5787 5.63326 17.5739C5.63765 17.5691 5.64103 17.5634 5.6432 17.5573L5.64331 17.5568L8.27767 8.64351C8.27902 8.63882 8.28047 8.63418 8.28193 8.62955C8.28635 8.61591 8.28177 8.59241 8.25326 8.58228L5.93087 7.75196L5.91971 7.74786C5.91917 7.7477 5.91863 7.74749 5.91685 7.74759C5.91163 7.74817 5.90658 7.74976 5.90198 7.75228C5.89607 7.75505 5.89078 7.75896 5.8864 7.76379C5.88202 7.76862 5.87865 7.77427 5.87648 7.78042ZM6.3515 6.59016C5.65468 6.3301 4.8989 6.73865 4.69278 7.42587L2.0588 16.3381C1.85204 16.9958 2.20816 17.6895 2.85081 17.9191L5.16818 18.7475C5.865 19.0076 6.62073 18.599 6.82685 17.9118L6.8276 17.9094L9.46088 8.99962C9.66759 8.34194 9.31158 7.64826 8.66904 7.4187L6.3515 6.59016Z" fill="white"/>
<path fill-rule="evenodd" clip-rule="evenodd" d="M18.675 9.12844C18.0492 8.96755 17.5108 8.94454 17.113 9.1037L17.1062 9.1064C16.1573 9.47297 14.3519 10.675 13.1451 12.2783C12.8998 12.618 12.9269 13.1281 13.2 13.4444C13.2167 13.4638 13.2323 13.4842 13.2464 13.5055L13.249 13.5093C13.4473 13.7283 13.7351 13.7828 13.981 13.6774L13.9832 13.6765C14.1784 13.5937 14.3996 13.4433 14.6586 13.2326C14.8168 13.1039 14.9567 12.9809 15.1041 12.8514C15.2131 12.7555 15.3263 12.656 15.4542 12.5479C15.7231 12.3203 16.0313 12.0782 16.3573 11.9188C16.6895 11.7562 17.1099 11.646 17.5579 11.7934C17.8983 11.9056 18.377 12.1683 18.886 12.4769C19.4126 12.7961 20.0272 13.1991 20.6598 13.629C21.9252 14.4887 23.2846 15.4704 24.2005 16.1393C24.985 16.7036 25.2774 17.715 25.0224 18.6234L25.0212 18.6281C24.7299 19.6354 23.814 20.2845 22.8618 20.2118C22.8642 20.7244 22.6968 21.2411 22.3514 21.6554L22.3505 21.6565C21.8402 22.266 21.052 22.5045 20.3295 22.2919C20.3072 22.8003 20.119 23.3042 19.7574 23.6988L19.7555 23.7008C19.1196 24.3882 18.1119 24.5582 17.2962 24.0617L14.973 22.6413C14.6818 22.4633 14.5902 22.083 14.7681 21.7919C14.9461 21.5008 15.3264 21.4091 15.6175 21.587L17.9387 23.0062C17.9386 23.0062 17.9388 23.0063 17.9387 23.0062C18.2295 23.1831 18.593 23.137 18.8475 22.8628C19.2583 22.4133 19.136 21.6492 18.6706 21.3682C18.6704 21.3681 18.6702 21.368 18.6701 21.3679L16.2886 19.9366C15.9962 19.7608 15.9014 19.3812 16.0772 19.0888C16.2529 18.7964 16.6324 18.7017 16.9249 18.8774L20.5136 21.033C20.7953 21.2045 21.1577 21.1561 21.4027 20.8637C21.7453 20.452 21.6759 19.8283 21.329 19.5073L17.8515 17.2813L17.8499 17.2803C17.5628 17.0965 17.4788 16.715 17.6621 16.4277C17.8454 16.1403 18.2268 16.0557 18.5144 16.2386L18.516 16.2396L21.8852 18.3814C21.949 18.4223 22.0105 18.4666 22.0695 18.5142L22.5975 18.8522C23.02 19.1256 23.6428 18.9419 23.8335 18.2872C23.962 17.8256 23.7981 17.3713 23.4779 17.1416L23.4737 17.1386C22.5607 16.4719 21.2139 15.4992 19.9654 14.651C19.3408 14.2266 18.7461 13.837 18.2455 13.5336C17.7272 13.2195 17.3605 13.0294 17.1714 12.9671C17.1439 12.9581 17.0725 12.9444 16.9003 13.0287C16.7212 13.1163 16.5113 13.2721 16.2523 13.4912C16.1525 13.5762 16.0535 13.6621 15.9551 13.7489C15.7858 13.8971 15.6028 14.0574 15.4382 14.1912C15.1535 14.4229 14.8245 14.6617 14.4666 14.8136C13.71 15.1373 12.83 14.934 12.2829 14.2811C12.2684 14.2638 12.2549 14.2457 12.2424 14.227L12.2378 14.2201C11.6225 13.4778 11.5629 12.3508 12.149 11.5471L12.1543 11.5398C13.497 9.75378 15.4891 8.40754 16.6575 7.95505C17.4196 7.65155 18.2692 7.7483 18.9826 7.93172C19.7454 8.1278 20.4749 8.4575 20.9602 8.67693C21.0163 8.70226 21.0692 8.72614 21.1184 8.74818C21.4387 8.8915 21.7409 8.89285 21.9706 8.85571C22.0621 8.84109 22.152 8.81829 22.2394 8.78758C22.2643 8.77881 22.2887 8.76906 22.3128 8.75837C22.616 8.60831 22.9842 8.73018 23.1377 9.03255C23.292 9.33687 23.1706 9.70867 22.8663 9.86309L22.5867 9.31213C22.8663 9.86309 22.8661 9.8632 22.8658 9.8633L22.8653 9.86357L22.8643 9.86411L22.862 9.8653L22.8564 9.86805L22.8414 9.87522C22.8299 9.88066 22.8151 9.88745 22.7971 9.89527C22.7614 9.9109 22.713 9.93062 22.6535 9.95175C22.4957 10.0075 22.3333 10.0489 22.1681 10.0755C21.766 10.1405 21.2079 10.1419 20.6138 9.87613C20.5614 9.85263 20.507 9.82816 20.4509 9.80283C19.9574 9.58028 19.3269 9.29601 18.675 9.12844ZM8.26419 16.052L8.26398 16.0526L6.97879 19.2595C6.84404 19.614 7.01662 20.1159 7.47283 20.3398L7.59777 20.3966C7.60343 20.3992 7.60904 20.4019 7.61464 20.4046C8.04083 20.6141 8.43473 20.4285 8.56172 20.1148L8.56194 20.1143L9.84713 16.9073C9.98182 16.5529 9.80929 16.051 9.35313 15.827L9.22814 15.7702C9.22248 15.7677 9.21686 15.765 9.21127 15.7623C8.78508 15.5528 8.39118 15.7383 8.26419 16.052ZM9.74725 14.6489C8.7556 14.1673 7.54355 14.5359 7.11806 15.5902L5.83012 18.8041L5.82721 18.8115C5.43525 19.827 5.95884 20.9805 6.94089 21.4552L6.9541 21.4614L7.07866 21.5179C8.07031 21.9995 9.28236 21.631 9.70785 20.5766L10.9958 17.3627L10.9987 17.3554C11.3907 16.3399 10.8671 15.1863 9.88502 14.7117C9.88065 14.7096 9.87625 14.7075 9.87181 14.7055L9.74725 14.6489Z" fill="white"/>
<path fill-rule="evenodd" clip-rule="evenodd" d="M11.5969 18.1462C11.132 17.9212 10.7018 18.1212 10.5626 18.4692L9.3233 21.5614C9.3233 21.5614 9.32335 21.5613 9.3233 21.5614C9.16915 21.9471 9.36011 22.4958 9.85314 22.7333L9.97996 22.7909L9.99338 22.7972C10.4583 23.0222 10.8884 22.8221 11.0277 22.4742L12.267 19.3819M12.1279 17.0304C11.1023 16.5388 9.85297 16.9169 9.41552 18.0099C9.41547 18.01 9.41552 18.0099 9.41552 18.0099L9.41536 18.0103L8.17604 21.1025C7.7533 22.1594 8.30664 23.3654 9.32632 23.851L9.33629 23.8556L9.46242 23.913C10.4881 24.4046 11.7376 24.0263 12.1749 22.9331L13.4143 19.8408C13.837 18.7839 13.2837 17.5779 12.264 17.0924L12.2541 17.0877L12.1279 17.0304ZM11.7372 18.2101L11.6103 18.1524C11.6058 18.1504 11.6014 18.1483 11.5969 18.1462" fill="white"/>
<path fill-rule="evenodd" clip-rule="evenodd" d="M13.1735 20.5756C13.1735 20.5757 13.1736 20.5755 13.1735 20.5756L12.4155 22.4767C12.2612 22.8624 12.4522 23.411 12.9453 23.6485L13.0721 23.7062C13.0766 23.7082 13.0811 23.7103 13.0856 23.7124C13.5504 23.9374 13.9805 23.7375 14.1198 23.3896C14.1197 23.3897 14.1198 23.3896 14.1198 23.3896L14.8779 21.4883C15.0322 21.1026 14.8412 20.554 14.348 20.3165L14.2212 20.2589C14.2167 20.2568 14.2122 20.2547 14.2078 20.2526C13.743 20.0277 13.3128 20.2278 13.1735 20.5756ZM14.7388 19.1368C13.7131 18.6451 12.4636 19.0234 12.0262 20.1167L11.2682 22.0178C11.2682 22.0179 11.2683 22.0177 11.2682 22.0178C10.8457 23.0746 11.3989 24.2807 12.4185 24.7662L12.4284 24.7708L12.5546 24.8282C13.5803 25.3199 14.8298 24.9416 15.2671 23.8483L16.0251 21.9472L16.0253 21.9468C16.4478 20.89 15.8944 19.6843 14.8749 19.1988L14.8649 19.1942L14.7388 19.1368ZM14.0977 9.38524C13.459 9.1587 12.7876 9.0281 12.3112 9.15256C11.568 9.3467 10.6944 9.3951 10.0341 9.39969C9.75519 9.40159 9.47629 9.39618 9.19767 9.38346C9.09255 9.37865 8.98749 9.37255 8.88252 9.36514L8.86382 9.36368L8.85848 9.36325L8.85633 9.36309C8.85622 9.36309 8.85595 9.36309 8.90629 8.74729L8.85633 9.36309C8.51622 9.33528 8.26273 9.03705 8.29054 8.69695C8.3183 8.35695 8.61642 8.10384 8.95642 8.13154L8.95981 8.13181L8.97367 8.13284C8.98633 8.13381 9.00579 8.13515 9.03145 8.13688C9.08276 8.14022 9.15871 8.14475 9.25449 8.14911C9.44626 8.15795 9.71598 8.16625 10.0255 8.1641C10.6556 8.15968 11.4064 8.11182 11.9988 7.95707C12.8579 7.73258 13.8349 7.981 14.5107 8.22069C14.8107 8.32767 15.1048 8.45041 15.3919 8.58839C15.5018 8.64116 15.5904 8.68649 15.6525 8.71915C15.6836 8.73554 15.7082 8.74874 15.7255 8.75823L15.7461 8.76955L15.7522 8.77295L15.7542 8.77408L15.7549 8.77445C15.755 8.77456 15.7554 8.77478 15.4517 9.3128L15.7554 8.77478C16.0526 8.94251 16.1575 9.31932 15.9898 9.61647C15.8222 9.91345 15.4457 10.0185 15.1486 9.85109L15.1481 9.85082L15.1461 9.84975L15.1333 9.84268C15.1147 9.83254 15.096 9.82255 15.0772 9.81272C15.0045 9.77453 14.931 9.73769 14.857 9.70222C14.6096 9.58331 14.3562 9.4775 14.0977 9.38524Z" fill="white"/>
</g>
</g>
<defs>
<clipPath id="clip0_66_6016">
<rect width="32" height="32" fill="white"/>
</clipPath>
</defs>
</svg>
